solid OBJECT
  facet normal 0 -0 1
    outer loop
      vertex -16.14659380867457 -48.246128247684481 0
      vertex -14.524140199334065 -48.246128247684481 0
      vertex -14.524140199334065 -27.640967409060039 0
    endloop
  endfacet
  facet normal -0 0 1
    outer loop
      vertex -16.14659380867457 -48.246128247684481 0
      vertex -14.524140199334065 -27.640967409060039 0
      vertex -16.14659380867457 -27.640967409060039 0
    endloop
  endfacet
  facet normal -0.73710752641992394 0 0.67577547639367708
    outer loop
      vertex -14.524140199334065 -48.246128247684481 0
      vertex -12.90168658999356 -48.246128247684481 1.7697043004492894
      vertex -12.90168658999356 -27.640967409060039 1.7697043004492894
    endloop
  endfacet
  facet normal -0.73710752641992394 0 0.67577547639367708
    outer loop
      vertex -14.524140199334065 -48.246128247684481 0
      vertex -12.90168658999356 -27.640967409060039 1.7697043004492894
      vertex -14.524140199334065 -27.640967409060039 0
    endloop
  endfacet
  facet normal -0.81071287334205588 0 0.58544396571957924
    outer loop
      vertex -12.90168658999356 -48.246128247684481 1.7697043004492894
      vertex -11.279232980653052 -48.246128247684481 4.0164505383679261
      vertex -11.279232980653052 -27.640967409060039 4.0164505383679261
    endloop
  endfacet
  facet normal -0.81071287334205588 0 0.58544396571957924
    outer loop
      vertex -12.90168658999356 -48.246128247684481 1.7697043004492894
      vertex -11.279232980653052 -27.640967409060039 4.0164505383679261
      vertex -12.90168658999356 -27.640967409060039 1.7697043004492894
    endloop
  endfacet
  facet normal 0 -0 1
    outer loop
      vertex -11.279232980653052 -48.246128247684481 4.0164505383679261
      vertex -9.6567793713125472 -48.246128247684481 4.0164505383679261
      vertex -9.6567793713125472 -27.640967409060039 4.0164505383679261
    endloop
  endfacet
  facet normal -0 0 1
    outer loop
      vertex -11.279232980653052 -48.246128247684481 4.0164505383679261
      vertex -9.6567793713125472 -27.640967409060039 4.0164505383679261
      vertex -11.279232980653052 -27.640967409060039 4.0164505383679261
    endloop
  endfacet
  facet normal 0 -0 1
    outer loop
      vertex -9.6567793713125472 -48.246128247684481 4.0164505383679261
      vertex -8.0343257619720418 -48.246128247684481 4.0164505383679261
      vertex -8.0343257619720418 -27.640967409060039 4.0164505383679261
    endloop
  endfacet
  facet normal -0 0 1
    outer loop
      vertex -9.6567793713125472 -48.246128247684481 4.0164505383679261
      vertex -8.0343257619720418 -27.640967409060039 4.0164505383679261
      vertex -9.6567793713125472 -27.640967409060039 4.0164505383679261
    endloop
  endfacet
  facet normal 0 -0 1
    outer loop
      vertex -8.0343257619720418 -48.246128247684481 4.0164505383679261
      vertex -6.4118721526315365 -48.246128247684481 4.0164505383679261
      vertex -6.4118721526315365 -27.640967409060039 4.0164505383679261
    endloop
  endfacet
  facet normal -0 0 1
    outer loop
      vertex -8.0343257619720418 -48.246128247684481 4.0164505383679261
      vertex -6.4118721526315365 -27.640967409060039 4.0164505383679261
      vertex -8.0343257619720418 -27.640967409060039 4.0164505383679261
    endloop
  endfacet
  facet normal 0 -0 1
    outer loop
      vertex -6.4118721526315365 -48.246128247684481 4.0164505383679261
      vertex -4.7894185432910312 -48.246128247684481 4.0164505383679261
      vertex -4.7894185432910312 -27.640967409060039 4.0164505383679261
    endloop
  endfacet
  facet normal -0 0 1
    outer loop
      vertex -6.4118721526315365 -48.246128247684481 4.0164505383679261
      vertex -4.7894185432910312 -27.640967409060039 4.0164505383679261
      vertex -6.4118721526315365 -27.640967409060039 4.0164505383679261
    endloop
  endfacet
  facet normal 0 -0 1
    outer loop
      vertex -4.7894185432910312 -48.246128247684481 4.0164505383679261
      vertex -3.1669649339505241 -48.246128247684481 4.0164505383679261
      vertex -3.1669649339505241 -27.640967409060039 4.0164505383679261
    endloop
  endfacet
  facet normal 0 -0 1
    outer loop
      vertex -4.7894185432910312 -48.246128247684481 4.0164505383679261
      vertex -3.1669649339505241 -27.640967409060039 4.0164505383679261
      vertex -4.7894185432910312 -27.640967409060039 4.0164505383679261
    endloop
  endfacet
  facet normal 0 -0 1
    outer loop
      vertex -3.1669649339505241 -48.246128247684481 4.0164505383679261
      vertex -1.5445113246100188 -48.246128247684481 4.0164505383679261
      vertex -1.5445113246100188 -27.640967409060039 4.0164505383679261
    endloop
  endfacet
  facet normal -0 0 1
    outer loop
      vertex -3.1669649339505241 -48.246128247684481 4.0164505383679261
      vertex -1.5445113246100188 -27.640967409060039 4.0164505383679261
      vertex -3.1669649339505241 -27.640967409060039 4.0164505383679261
    endloop
  endfacet
  facet normal 0 -0 1
    outer loop
      vertex -1.5445113246100188 -48.246128247684481 4.0164505383679261
      vertex 0.077942284730486477 -48.246128247684481 4.0164505383679261
      vertex 0.077942284730486477 -27.640967409060039 4.0164505383679261
    endloop
  endfacet
  facet normal -0 0 1
    outer loop
      vertex -1.5445113246100188 -48.246128247684481 4.0164505383679261
      vertex 0.077942284730486477 -27.640967409060039 4.0164505383679261
      vertex -1.5445113246100188 -27.640967409060039 4.0164505383679261
    endloop
  endfacet
  facet normal 0 -0 1
    outer loop
      vertex 0.077942284730486477 -48.246128247684481 4.0164505383679261
      vertex 1.7003958940709936 -48.246128247684481 4.0164505383679261
      vertex 1.7003958940709936 -27.640967409060039 4.0164505383679261
    endloop
  endfacet
  facet normal 0 -0 1
    outer loop
      vertex 0.077942284730486477 -48.246128247684481 4.0164505383679261
      vertex 1.7003958940709936 -27.640967409060039 4.0164505383679261
      vertex 0.077942284730486477 -27.640967409060039 4.0164505383679261
    endloop
  endfacet
  facet normal 0 -0 1
    outer loop
      vertex 1.7003958940709936 -48.246128247684481 4.0164505383679261
      vertex 3.3228495034114971 -48.246128247684481 4.0164505383679261
      vertex 3.3228495034114971 -27.640967409060039 4.0164505383679261
    endloop
  endfacet
  facet normal -0 0 1
    outer loop
      vertex 1.7003958940709936 -48.246128247684481 4.0164505383679261
      vertex 3.3228495034114971 -27.640967409060039 4.0164505383679261
      vertex 1.7003958940709936 -27.640967409060039 4.0164505383679261
    endloop
  endfacet
  facet normal 0 -0 1
    outer loop
      vertex 3.3228495034114971 -48.246128247684481 4.0164505383679261
      vertex 4.9453031127520042 -48.246128247684481 4.0164505383679261
      vertex 4.9453031127520042 -27.640967409060039 4.0164505383679261
    endloop
  endfacet
  facet normal 0 -0 1
    outer loop
      vertex 3.3228495034114971 -48.246128247684481 4.0164505383679261
      vertex 4.9453031127520042 -27.640967409060039 4.0164505383679261
      vertex 3.3228495034114971 -27.640967409060039 4.0164505383679261
    endloop
  endfacet
  facet normal 0 -0 1
    outer loop
      vertex 4.9453031127520042 -48.246128247684481 4.0164505383679261
      vertex 6.5677567220925077 -48.246128247684481 4.0164505383679261
      vertex 6.5677567220925077 -27.640967409060039 4.0164505383679261
    endloop
  endfacet
  facet normal -0 0 1
    outer loop
      vertex 4.9453031127520042 -48.246128247684481 4.0164505383679261
      vertex 6.5677567220925077 -27.640967409060039 4.0164505383679261
      vertex 4.9453031127520042 -27.640967409060039 4.0164505383679261
    endloop
  endfacet
  facet normal 0 -0 1
    outer loop
      vertex 6.5677567220925077 -48.246128247684481 4.0164505383679261
      vertex 8.1902103314330148 -48.246128247684481 4.0164505383679261
      vertex 8.1902103314330148 -27.640967409060039 4.0164505383679261
    endloop
  endfacet
  facet normal 0 -0 1
    outer loop
      vertex 6.5677567220925077 -48.246128247684481 4.0164505383679261
      vertex 8.1902103314330148 -27.640967409060039 4.0164505383679261
      vertex 6.5677567220925077 -27.640967409060039 4.0164505383679261
    endloop
  endfacet
  facet normal 0 -0 1
    outer loop
      vertex 8.1902103314330148 -48.246128247684481 4.0164505383679261
      vertex 9.8126639407735219 -48.246128247684481 4.0164505383679261
      vertex 9.8126639407735219 -27.640967409060039 4.0164505383679261
    endloop
  endfacet
  facet normal 0 -0 1
    outer loop
      vertex 8.1902103314330148 -48.246128247684481 4.0164505383679261
      vertex 9.8126639407735219 -27.640967409060039 4.0164505383679261
      vertex 8.1902103314330148 -27.640967409060039 4.0164505383679261
    endloop
  endfacet
  facet normal 0 -0 1
    outer loop
      vertex 9.8126639407735219 -48.246128247684481 4.0164505383679261
      vertex 11.435117550114025 -48.246128247684481 4.0164505383679261
      vertex 11.435117550114025 -27.640967409060039 4.0164505383679261
    endloop
  endfacet
  facet normal -0 0 1
    outer loop
      vertex 9.8126639407735219 -48.246128247684481 4.0164505383679261
      vertex 11.435117550114025 -27.640967409060039 4.0164505383679261
      vertex 9.8126639407735219 -27.640967409060039 4.0164505383679261
    endloop
  endfacet
  facet normal 0.81071287334205588 -0 0.58544396571957924
    outer loop
      vertex 11.435117550114025 -48.246128247684481 4.0164505383679261
      vertex 13.057571159454533 -48.246128247684481 1.7697043004492894
      vertex 13.057571159454533 -27.640967409060039 1.7697043004492894
    endloop
  endfacet
  facet normal 0.81071287334205588 0 0.58544396571957924
    outer loop
      vertex 11.435117550114025 -48.246128247684481 4.0164505383679261
      vertex 13.057571159454533 -27.640967409060039 1.7697043004492894
      vertex 11.435117550114025 -27.640967409060039 4.0164505383679261
    endloop
  endfacet
  facet normal 0.73710752641992439 -0 0.67577547639367674
    outer loop
      vertex 13.057571159454533 -48.246128247684481 1.7697043004492894
      vertex 14.680024768795036 -48.246128247684481 0
      vertex 14.680024768795036 -27.640967409060039 0
    endloop
  endfacet
  facet normal 0.73710752641992439 0 0.67577547639367674
    outer loop
      vertex 13.057571159454533 -48.246128247684481 1.7697043004492894
      vertex 14.680024768795036 -27.640967409060039 0
      vertex 13.057571159454533 -27.640967409060039 1.7697043004492894
    endloop
  endfacet
  facet normal 0 -0 1
    outer loop
      vertex 14.680024768795036 -48.246128247684481 0
      vertex 16.302478378135543 -48.246128247684481 0
      vertex 16.302478378135543 -27.640967409060039 0
    endloop
  endfacet
  facet normal 0 -0 1
    outer loop
      vertex 14.680024768795036 -48.246128247684481 0
      vertex 16.302478378135543 -27.640967409060039 0
      vertex 14.680024768795036 -27.640967409060039 0
    endloop
  endfacet
  facet normal 0 -0 1
    outer loop
      vertex -16.14659380867457 -27.640967409060039 0
      vertex -14.524140199334065 -27.640967409060039 0
      vertex -14.524140199334065 -7.0358065704355965 0
    endloop
  endfacet
  facet normal -0 0 1
    outer loop
      vertex -16.14659380867457 -27.640967409060039 0
      vertex -14.524140199334065 -7.0358065704355965 0
      vertex -16.14659380867457 -7.0358065704355965 0
    endloop
  endfacet
  facet normal -0.73710752641992394 0 0.67577547639367708
    outer loop
      vertex -14.524140199334065 -27.640967409060039 0
      vertex -12.90168658999356 -27.640967409060039 1.7697043004492894
      vertex -12.90168658999356 -7.0358065704355965 1.7697043004492894
    endloop
  endfacet
  facet normal -0.73710752641992394 0 0.67577547639367708
    outer loop
      vertex -14.524140199334065 -27.640967409060039 0
      vertex -12.90168658999356 -7.0358065704355965 1.7697043004492894
      vertex -14.524140199334065 -7.0358065704355965 0
    endloop
  endfacet
  facet normal -0.81071287334205588 0 0.58544396571957924
    outer loop
      vertex -12.90168658999356 -27.640967409060039 1.7697043004492894
      vertex -11.279232980653052 -27.640967409060039 4.0164505383679261
      vertex -11.279232980653052 -7.0358065704355965 4.0164505383679261
    endloop
  endfacet
  facet normal -0.81071287334205588 0 0.58544396571957924
    outer loop
      vertex -12.90168658999356 -27.640967409060039 1.7697043004492894
      vertex -11.279232980653052 -7.0358065704355965 4.0164505383679261
      vertex -12.90168658999356 -7.0358065704355965 1.7697043004492894
    endloop
  endfacet
  facet normal 0 -0 1
    outer loop
      vertex -11.279232980653052 -27.640967409060039 4.0164505383679261
      vertex -9.6567793713125472 -27.640967409060039 4.0164505383679261
      vertex -9.6567793713125472 -7.0358065704355965 4.0164505383679261
    endloop
  endfacet
  facet normal -0 0 1
    outer loop
      vertex -11.279232980653052 -27.640967409060039 4.0164505383679261
      vertex -9.6567793713125472 -7.0358065704355965 4.0164505383679261
      vertex -11.279232980653052 -7.0358065704355965 4.0164505383679261
    endloop
  endfacet
  facet normal 0 -0 1
    outer loop
      vertex -9.6567793713125472 -27.640967409060039 4.0164505383679261
      vertex -8.0343257619720418 -27.640967409060039 4.0164505383679261
      vertex -8.0343257619720418 -7.0358065704355965 4.0164505383679261
    endloop
  endfacet
  facet normal -0 0 1
    outer loop
      vertex -9.6567793713125472 -27.640967409060039 4.0164505383679261
      vertex -8.0343257619720418 -7.0358065704355965 4.0164505383679261
      vertex -9.6567793713125472 -7.0358065704355965 4.0164505383679261
    endloop
  endfacet
  facet normal 0 -0 1
    outer loop
      vertex -8.0343257619720418 -27.640967409060039 4.0164505383679261
      vertex -6.4118721526315365 -27.640967409060039 4.0164505383679261
      vertex -6.4118721526315365 -7.0358065704355965 4.0164505383679261
    endloop
  endfacet
  facet normal -0 0 1
    outer loop
      vertex -8.0343257619720418 -27.640967409060039 4.0164505383679261
      vertex -6.4118721526315365 -7.0358065704355965 4.0164505383679261
      vertex -8.0343257619720418 -7.0358065704355965 4.0164505383679261
    endloop
  endfacet
  facet normal 0 -0 1
    outer loop
      vertex -6.4118721526315365 -27.640967409060039 4.0164505383679261
      vertex -4.7894185432910312 -27.640967409060039 4.0164505383679261
      vertex -4.7894185432910312 -7.0358065704355965 4.0164505383679261
    endloop
  endfacet
  facet normal -0 0 1
    outer loop
      vertex -6.4118721526315365 -27.640967409060039 4.0164505383679261
      vertex -4.7894185432910312 -7.0358065704355965 4.0164505383679261
      vertex -6.4118721526315365 -7.0358065704355965 4.0164505383679261
    endloop
  endfacet
  facet normal 0 -0 1
    outer loop
      vertex -4.7894185432910312 -27.640967409060039 4.0164505383679261
      vertex -3.1669649339505241 -27.640967409060039 4.0164505383679261
      vertex -3.1669649339505241 -7.0358065704355965 4.0164505383679261
    endloop
  endfacet
  facet normal 0 -0 1
    outer loop
      vertex -4.7894185432910312 -27.640967409060039 4.0164505383679261
      vertex -3.1669649339505241 -7.0358065704355965 4.0164505383679261
      vertex -4.7894185432910312 -7.0358065704355965 4.0164505383679261
    endloop
  endfacet
  facet normal 0 -0 1
    outer loop
      vertex -3.1669649339505241 -27.640967409060039 4.0164505383679261
      vertex -1.5445113246100188 -27.640967409060039 4.0164505383679261
      vertex -1.5445113246100188 -7.0358065704355965 4.0164505383679261
    endloop
  endfacet
  facet normal -0 0 1
    outer loop
      vertex -3.1669649339505241 -27.640967409060039 4.0164505383679261
      vertex -1.5445113246100188 -7.0358065704355965 4.0164505383679261
      vertex -3.1669649339505241 -7.0358065704355965 4.0164505383679261
    endloop
  endfacet
  facet normal 0 -0 1
    outer loop
      vertex -1.5445113246100188 -27.640967409060039 4.0164505383679261
      vertex 0.077942284730486477 -27.640967409060039 4.0164505383679261
      vertex 0.077942284730486477 -7.0358065704355965 4.0164505383679261
    endloop
  endfacet
  facet normal -0 0 1
    outer loop
      vertex -1.5445113246100188 -27.640967409060039 4.0164505383679261
      vertex 0.077942284730486477 -7.0358065704355965 4.0164505383679261
      vertex -1.5445113246100188 -7.0358065704355965 4.0164505383679261
    endloop
  endfacet
  facet normal 0 -0 1
    outer loop
      vertex 0.077942284730486477 -27.640967409060039 4.0164505383679261
      vertex 1.7003958940709936 -27.640967409060039 4.0164505383679261
      vertex 1.7003958940709936 -7.0358065704355965 4.0164505383679261
    endloop
  endfacet
  facet normal 0 -0 1
    outer loop
      vertex 0.077942284730486477 -27.640967409060039 4.0164505383679261
      vertex 1.7003958940709936 -7.0358065704355965 4.0164505383679261
      vertex 0.077942284730486477 -7.0358065704355965 4.0164505383679261
    endloop
  endfacet
  facet normal 0 -0 1
    outer loop
      vertex 1.7003958940709936 -27.640967409060039 4.0164505383679261
      vertex 3.3228495034114971 -27.640967409060039 4.0164505383679261
      vertex 3.3228495034114971 -7.0358065704355965 4.0164505383679261
    endloop
  endfacet
  facet normal -0 0 1
    outer loop
      vertex 1.7003958940709936 -27.640967409060039 4.0164505383679261
      vertex 3.3228495034114971 -7.0358065704355965 4.0164505383679261
      vertex 1.7003958940709936 -7.0358065704355965 4.0164505383679261
    endloop
  endfacet
  facet normal 0 -0 1
    outer loop
      vertex 3.3228495034114971 -27.640967409060039 4.0164505383679261
      vertex 4.9453031127520042 -27.640967409060039 4.0164505383679261
      vertex 4.9453031127520042 -7.0358065704355965 4.0164505383679261
    endloop
  endfacet
  facet normal 0 -0 1
    outer loop
      vertex 3.3228495034114971 -27.640967409060039 4.0164505383679261
      vertex 4.9453031127520042 -7.0358065704355965 4.0164505383679261
      vertex 3.3228495034114971 -7.0358065704355965 4.0164505383679261
    endloop
  endfacet
  facet normal 0 -0 1
    outer loop
      vertex 4.9453031127520042 -27.640967409060039 4.0164505383679261
      vertex 6.5677567220925077 -27.640967409060039 4.0164505383679261
      vertex 6.5677567220925077 -7.0358065704355965 4.0164505383679261
    endloop
  endfacet
  facet normal -0 0 1
    outer loop
      vertex 4.9453031127520042 -27.640967409060039 4.0164505383679261
      vertex 6.5677567220925077 -7.0358065704355965 4.0164505383679261
      vertex 4.9453031127520042 -7.0358065704355965 4.0164505383679261
    endloop
  endfacet
  facet normal 0 -0 1
    outer loop
      vertex 6.5677567220925077 -27.640967409060039 4.0164505383679261
      vertex 8.1902103314330148 -27.640967409060039 4.0164505383679261
      vertex 8.1902103314330148 -7.0358065704355965 4.0164505383679261
    endloop
  endfacet
  facet normal 0 -0 1
    outer loop
      vertex 6.5677567220925077 -27.640967409060039 4.0164505383679261
      vertex 8.1902103314330148 -7.0358065704355965 4.0164505383679261
      vertex 6.5677567220925077 -7.0358065704355965 4.0164505383679261
    endloop
  endfacet
  facet normal 0 -0 1
    outer loop
      vertex 8.1902103314330148 -27.640967409060039 4.0164505383679261
      vertex 9.8126639407735219 -27.640967409060039 4.0164505383679261
      vertex 9.8126639407735219 -7.0358065704355965 4.0164505383679261
    endloop
  endfacet
  facet normal 0 -0 1
    outer loop
      vertex 8.1902103314330148 -27.640967409060039 4.0164505383679261
      vertex 9.8126639407735219 -7.0358065704355965 4.0164505383679261
      vertex 8.1902103314330148 -7.0358065704355965 4.0164505383679261
    endloop
  endfacet
  facet normal 0 -0 1
    outer loop
      vertex 9.8126639407735219 -27.640967409060039 4.0164505383679261
      vertex 11.435117550114025 -27.640967409060039 4.0164505383679261
      vertex 11.435117550114025 -7.0358065704355965 4.0164505383679261
    endloop
  endfacet
  facet normal -0 0 1
    outer loop
      vertex 9.8126639407735219 -27.640967409060039 4.0164505383679261
      vertex 11.435117550114025 -7.0358065704355965 4.0164505383679261
      vertex 9.8126639407735219 -7.0358065704355965 4.0164505383679261
    endloop
  endfacet
  facet normal 0.81071287334205588 -0 0.58544396571957924
    outer loop
      vertex 11.435117550114025 -27.640967409060039 4.0164505383679261
      vertex 13.057571159454533 -27.640967409060039 1.7697043004492894
      vertex 13.057571159454533 -7.0358065704355965 1.7697043004492894
    endloop
  endfacet
  facet normal 0.81071287334205588 0 0.58544396571957924
    outer loop
      vertex 11.435117550114025 -27.640967409060039 4.0164505383679261
      vertex 13.057571159454533 -7.0358065704355965 1.7697043004492894
      vertex 11.435117550114025 -7.0358065704355965 4.0164505383679261
    endloop
  endfacet
  facet normal 0.73710752641992439 -0 0.67577547639367674
    outer loop
      vertex 13.057571159454533 -27.640967409060039 1.7697043004492894
      vertex 14.680024768795036 -27.640967409060039 0
      vertex 14.680024768795036 -7.0358065704355965 0
    endloop
  endfacet
  facet normal 0.73710752641992439 0 0.67577547639367674
    outer loop
      vertex 13.057571159454533 -27.640967409060039 1.7697043004492894
      vertex 14.680024768795036 -7.0358065704355965 0
      vertex 13.057571159454533 -7.0358065704355965 1.7697043004492894
    endloop
  endfacet
  facet normal 0 -0 1
    outer loop
      vertex 14.680024768795036 -27.640967409060039 0
      vertex 16.302478378135543 -27.640967409060039 0
      vertex 16.302478378135543 -7.0358065704355965 0
    endloop
  endfacet
  facet normal 0 -0 1
    outer loop
      vertex 14.680024768795036 -27.640967409060039 0
      vertex 16.302478378135543 -7.0358065704355965 0
      vertex 14.680024768795036 -7.0358065704355965 0
    endloop
  endfacet
  facet normal 0 -0 1
    outer loop
      vertex -16.14659380867457 -7.0358065704355965 0
      vertex -14.524140199334065 -7.0358065704355965 0
      vertex -14.524140199334065 13.569354268188832 0
    endloop
  endfacet
  facet normal -0 0 1
    outer loop
      vertex -16.14659380867457 -7.0358065704355965 0
      vertex -14.524140199334065 13.569354268188832 0
      vertex -16.14659380867457 13.569354268188832 0
    endloop
  endfacet
  facet normal -0.73710752641992394 0 0.67577547639367708
    outer loop
      vertex -14.524140199334065 -7.0358065704355965 0
      vertex -12.90168658999356 -7.0358065704355965 1.7697043004492894
      vertex -12.90168658999356 13.569354268188832 1.7697043004492894
    endloop
  endfacet
  facet normal -0.73710752641992394 0 0.67577547639367708
    outer loop
      vertex -14.524140199334065 -7.0358065704355965 0
      vertex -12.90168658999356 13.569354268188832 1.7697043004492894
      vertex -14.524140199334065 13.569354268188832 0
    endloop
  endfacet
  facet normal -0.81071287334205588 0 0.58544396571957924
    outer loop
      vertex -12.90168658999356 -7.0358065704355965 1.7697043004492894
      vertex -11.279232980653052 -7.0358065704355965 4.0164505383679261
      vertex -11.279232980653052 13.569354268188832 4.0164505383679261
    endloop
  endfacet
  facet normal -0.81071287334205588 -1.1250901229304609e-17 0.58544396571957924
    outer loop
      vertex -12.90168658999356 -7.0358065704355965 1.7697043004492894
      vertex -11.279232980653052 13.569354268188832 4.0164505383679261
      vertex -12.90168658999356 13.569354268188832 1.7697043004492894
    endloop
  endfacet
  facet normal 0 -0 1
    outer loop
      vertex -11.279232980653052 -7.0358065704355965 4.0164505383679261
      vertex -9.6567793713125472 -7.0358065704355965 4.0164505383679261
      vertex -9.6567793713125472 13.569354268188832 4.0164505383679261
    endloop
  endfacet
  facet normal -0 0 1
    outer loop
      vertex -11.279232980653052 -7.0358065704355965 4.0164505383679261
      vertex -9.6567793713125472 13.569354268188832 4.0164505383679261
      vertex -11.279232980653052 13.569354268188832 4.0164505383679261
    endloop
  endfacet
  facet normal 0 -0 1
    outer loop
      vertex -9.6567793713125472 -7.0358065704355965 4.0164505383679261
      vertex -8.0343257619720418 -7.0358065704355965 4.0164505383679261
      vertex -8.0343257619720418 13.569354268188832 4.0164505383679261
    endloop
  endfacet
  facet normal -0 0 1
    outer loop
      vertex -9.6567793713125472 -7.0358065704355965 4.0164505383679261
      vertex -8.0343257619720418 13.569354268188832 4.0164505383679261
      vertex -9.6567793713125472 13.569354268188832 4.0164505383679261
    endloop
  endfacet
  facet normal 0 -0 1
    outer loop
      vertex -8.0343257619720418 -7.0358065704355965 4.0164505383679261
      vertex -6.4118721526315365 -7.0358065704355965 4.0164505383679261
      vertex -6.4118721526315365 13.569354268188832 4.0164505383679261
    endloop
  endfacet
  facet normal -0 0 1
    outer loop
      vertex -8.0343257619720418 -7.0358065704355965 4.0164505383679261
      vertex -6.4118721526315365 13.569354268188832 4.0164505383679261
      vertex -8.0343257619720418 13.569354268188832 4.0164505383679261
    endloop
  endfacet
  facet normal 0 -0 1
    outer loop
      vertex -6.4118721526315365 -7.0358065704355965 4.0164505383679261
      vertex -4.7894185432910312 -7.0358065704355965 4.0164505383679261
      vertex -4.7894185432910312 13.569354268188832 4.0164505383679261
    endloop
  endfacet
  facet normal -0 0 1
    outer loop
      vertex -6.4118721526315365 -7.0358065704355965 4.0164505383679261
      vertex -4.7894185432910312 13.569354268188832 4.0164505383679261
      vertex -6.4118721526315365 13.569354268188832 4.0164505383679261
    endloop
  endfacet
  facet normal 0 -0 1
    outer loop
      vertex -4.7894185432910312 -7.0358065704355965 4.0164505383679261
      vertex -3.1669649339505241 -7.0358065704355965 4.0164505383679261
      vertex -3.1669649339505241 13.569354268188832 4.0164505383679261
    endloop
  endfacet
  facet normal -0 0 1
    outer loop
      vertex -4.7894185432910312 -7.0358065704355965 4.0164505383679261
      vertex -3.1669649339505241 13.569354268188832 4.0164505383679261
      vertex -4.7894185432910312 13.569354268188832 4.0164505383679261
    endloop
  endfacet
  facet normal 0 -0 1
    outer loop
      vertex -3.1669649339505241 -7.0358065704355965 4.0164505383679261
      vertex -1.5445113246100188 -7.0358065704355965 4.0164505383679261
      vertex -1.5445113246100188 13.569354268188832 4.0164505383679261
    endloop
  endfacet
  facet normal -0 0 1
    outer loop
      vertex -3.1669649339505241 -7.0358065704355965 4.0164505383679261
      vertex -1.5445113246100188 13.569354268188832 4.0164505383679261
      vertex -3.1669649339505241 13.569354268188832 4.0164505383679261
    endloop
  endfacet
  facet normal 0 -0 1
    outer loop
      vertex -1.5445113246100188 -7.0358065704355965 4.0164505383679261
      vertex 0.077942284730486477 -7.0358065704355965 4.0164505383679261
      vertex 0.077942284730486477 13.569354268188832 4.0164505383679261
    endloop
  endfacet
  facet normal -0 0 1
    outer loop
      vertex -1.5445113246100188 -7.0358065704355965 4.0164505383679261
      vertex 0.077942284730486477 13.569354268188832 4.0164505383679261
      vertex -1.5445113246100188 13.569354268188832 4.0164505383679261
    endloop
  endfacet
  facet normal 0 -0 1
    outer loop
      vertex 0.077942284730486477 -7.0358065704355965 4.0164505383679261
      vertex 1.7003958940709936 -7.0358065704355965 4.0164505383679261
      vertex 1.7003958940709936 13.569354268188832 4.0164505383679261
    endloop
  endfacet
  facet normal -0 0 1
    outer loop
      vertex 0.077942284730486477 -7.0358065704355965 4.0164505383679261
      vertex 1.7003958940709936 13.569354268188832 4.0164505383679261
      vertex 0.077942284730486477 13.569354268188832 4.0164505383679261
    endloop
  endfacet
  facet normal 0 -0 1
    outer loop
      vertex 1.7003958940709936 -7.0358065704355965 4.0164505383679261
      vertex 3.3228495034114971 -7.0358065704355965 4.0164505383679261
      vertex 3.3228495034114971 13.569354268188832 4.0164505383679261
    endloop
  endfacet
  facet normal -0 0 1
    outer loop
      vertex 1.7003958940709936 -7.0358065704355965 4.0164505383679261
      vertex 3.3228495034114971 13.569354268188832 4.0164505383679261
      vertex 1.7003958940709936 13.569354268188832 4.0164505383679261
    endloop
  endfacet
  facet normal 0 -0 1
    outer loop
      vertex 3.3228495034114971 -7.0358065704355965 4.0164505383679261
      vertex 4.9453031127520042 -7.0358065704355965 4.0164505383679261
      vertex 4.9453031127520042 13.569354268188832 4.0164505383679261
    endloop
  endfacet
  facet normal -0 0 1
    outer loop
      vertex 3.3228495034114971 -7.0358065704355965 4.0164505383679261
      vertex 4.9453031127520042 13.569354268188832 4.0164505383679261
      vertex 3.3228495034114971 13.569354268188832 4.0164505383679261
    endloop
  endfacet
  facet normal 0 -0 1
    outer loop
      vertex 4.9453031127520042 -7.0358065704355965 4.0164505383679261
      vertex 6.5677567220925077 -7.0358065704355965 4.0164505383679261
      vertex 6.5677567220925077 13.569354268188832 4.0164505383679261
    endloop
  endfacet
  facet normal -0 0 1
    outer loop
      vertex 4.9453031127520042 -7.0358065704355965 4.0164505383679261
      vertex 6.5677567220925077 13.569354268188832 4.0164505383679261
      vertex 4.9453031127520042 13.569354268188832 4.0164505383679261
    endloop
  endfacet
  facet normal 0 -0 1
    outer loop
      vertex 6.5677567220925077 -7.0358065704355965 4.0164505383679261
      vertex 8.1902103314330148 -7.0358065704355965 4.0164505383679261
      vertex 8.1902103314330148 13.569354268188832 4.0164505383679261
    endloop
  endfacet
  facet normal -0 0 1
    outer loop
      vertex 6.5677567220925077 -7.0358065704355965 4.0164505383679261
      vertex 8.1902103314330148 13.569354268188832 4.0164505383679261
      vertex 6.5677567220925077 13.569354268188832 4.0164505383679261
    endloop
  endfacet
  facet normal 0 -0 1
    outer loop
      vertex 8.1902103314330148 -7.0358065704355965 4.0164505383679261
      vertex 9.8126639407735219 -7.0358065704355965 4.0164505383679261
      vertex 9.8126639407735219 13.569354268188832 4.0164505383679261
    endloop
  endfacet
  facet normal -0 0 1
    outer loop
      vertex 8.1902103314330148 -7.0358065704355965 4.0164505383679261
      vertex 9.8126639407735219 13.569354268188832 4.0164505383679261
      vertex 8.1902103314330148 13.569354268188832 4.0164505383679261
    endloop
  endfacet
  facet normal 0 -0 1
    outer loop
      vertex 9.8126639407735219 -7.0358065704355965 4.0164505383679261
      vertex 11.435117550114025 -7.0358065704355965 4.0164505383679261
      vertex 11.435117550114025 13.569354268188832 4.0164505383679261
    endloop
  endfacet
  facet normal -0 0 1
    outer loop
      vertex 9.8126639407735219 -7.0358065704355965 4.0164505383679261
      vertex 11.435117550114025 13.569354268188832 4.0164505383679261
      vertex 9.8126639407735219 13.569354268188832 4.0164505383679261
    endloop
  endfacet
  facet normal 0.81071287334205588 -0 0.58544396571957924
    outer loop
      vertex 11.435117550114025 -7.0358065704355965 4.0164505383679261
      vertex 13.057571159454533 -7.0358065704355965 1.7697043004492894
      vertex 13.057571159454533 13.569354268188832 1.7697043004492894
    endloop
  endfacet
  facet normal 0.81071287334205588 1.1250901229304609e-17 0.58544396571957924
    outer loop
      vertex 11.435117550114025 -7.0358065704355965 4.0164505383679261
      vertex 13.057571159454533 13.569354268188832 1.7697043004492894
      vertex 11.435117550114025 13.569354268188832 4.0164505383679261
    endloop
  endfacet
  facet normal 0.73710752641992439 -0 0.67577547639367674
    outer loop
      vertex 13.057571159454533 -7.0358065704355965 1.7697043004492894
      vertex 14.680024768795036 -7.0358065704355965 0
      vertex 14.680024768795036 13.569354268188832 0
    endloop
  endfacet
  facet normal 0.73710752641992439 0 0.67577547639367674
    outer loop
      vertex 13.057571159454533 -7.0358065704355965 1.7697043004492894
      vertex 14.680024768795036 13.569354268188832 0
      vertex 13.057571159454533 13.569354268188832 1.7697043004492894
    endloop
  endfacet
  facet normal 0 -0 1
    outer loop
      vertex 14.680024768795036 -7.0358065704355965 0
      vertex 16.302478378135543 -7.0358065704355965 0
      vertex 16.302478378135543 13.569354268188832 0
    endloop
  endfacet
  facet normal -0 0 1
    outer loop
      vertex 14.680024768795036 -7.0358065704355965 0
      vertex 16.302478378135543 13.569354268188832 0
      vertex 14.680024768795036 13.569354268188832 0
    endloop
  endfacet
  facet normal 0 -0 1
    outer loop
      vertex -16.14659380867457 13.569354268188832 0
      vertex -14.524140199334065 13.569354268188832 0
      vertex -14.524140199334065 34.174515106813288 0
    endloop
  endfacet
  facet normal -0 0 1
    outer loop
      vertex -16.14659380867457 13.569354268188832 0
      vertex -14.524140199334065 34.174515106813288 0
      vertex -16.14659380867457 34.174515106813288 0
    endloop
  endfacet
  facet normal -0.73710752641992394 0 0.67577547639367708
    outer loop
      vertex -14.524140199334065 13.569354268188832 0
      vertex -12.90168658999356 13.569354268188832 1.7697043004492894
      vertex -12.90168658999356 34.174515106813288 1.7697043004492894
    endloop
  endfacet
  facet normal -0.73710752641992394 0 0.67577547639367708
    outer loop
      vertex -14.524140199334065 13.569354268188832 0
      vertex -12.90168658999356 34.174515106813288 1.7697043004492894
      vertex -14.524140199334065 34.174515106813288 0
    endloop
  endfacet
  facet normal -0.81071287334205588 0 0.58544396571957924
    outer loop
      vertex -12.90168658999356 13.569354268188832 1.7697043004492894
      vertex -11.279232980653052 13.569354268188832 4.0164505383679261
      vertex -11.279232980653052 34.174515106813288 4.0164505383679261
    endloop
  endfacet
  facet normal -0.810712873342056 0 0.58544396571957924
    outer loop
      vertex -12.90168658999356 13.569354268188832 1.7697043004492894
      vertex -11.279232980653052 34.174515106813288 4.0164505383679261
      vertex -12.90168658999356 34.174515106813288 1.7697043004492894
    endloop
  endfacet
  facet normal 0 -0 1
    outer loop
      vertex -11.279232980653052 13.569354268188832 4.0164505383679261
      vertex -9.6567793713125472 13.569354268188832 4.0164505383679261
      vertex -9.6567793713125472 34.174515106813288 4.0164505383679261
    endloop
  endfacet
  facet normal -0 0 1
    outer loop
      vertex -11.279232980653052 13.569354268188832 4.0164505383679261
      vertex -9.6567793713125472 34.174515106813288 4.0164505383679261
      vertex -11.279232980653052 34.174515106813288 4.0164505383679261
    endloop
  endfacet
  facet normal 0 -0 1
    outer loop
      vertex -9.6567793713125472 13.569354268188832 4.0164505383679261
      vertex -8.0343257619720418 13.569354268188832 4.0164505383679261
      vertex -8.0343257619720418 34.174515106813288 4.0164505383679261
    endloop
  endfacet
  facet normal -0 0 1
    outer loop
      vertex -9.6567793713125472 13.569354268188832 4.0164505383679261
      vertex -8.0343257619720418 34.174515106813288 4.0164505383679261
      vertex -9.6567793713125472 34.174515106813288 4.0164505383679261
    endloop
  endfacet
  facet normal 0 -0 1
    outer loop
      vertex -8.0343257619720418 13.569354268188832 4.0164505383679261
      vertex -6.4118721526315365 13.569354268188832 4.0164505383679261
      vertex -6.4118721526315365 34.174515106813288 4.0164505383679261
    endloop
  endfacet
  facet normal -0 0 1
    outer loop
      vertex -8.0343257619720418 13.569354268188832 4.0164505383679261
      vertex -6.4118721526315365 34.174515106813288 4.0164505383679261
      vertex -8.0343257619720418 34.174515106813288 4.0164505383679261
    endloop
  endfacet
  facet normal 0 -0 1
    outer loop
      vertex -6.4118721526315365 13.569354268188832 4.0164505383679261
      vertex -4.7894185432910312 13.569354268188832 4.0164505383679261
      vertex -4.7894185432910312 34.174515106813288 4.0164505383679261
    endloop
  endfacet
  facet normal -0 0 1
    outer loop
      vertex -6.4118721526315365 13.569354268188832 4.0164505383679261
      vertex -4.7894185432910312 34.174515106813288 4.0164505383679261
      vertex -6.4118721526315365 34.174515106813288 4.0164505383679261
    endloop
  endfacet
  facet normal 0 -0 1
    outer loop
      vertex -4.7894185432910312 13.569354268188832 4.0164505383679261
      vertex -3.1669649339505241 13.569354268188832 4.0164505383679261
      vertex -3.1669649339505241 34.174515106813288 4.0164505383679261
    endloop
  endfacet
  facet normal 0 -0 1
    outer loop
      vertex -4.7894185432910312 13.569354268188832 4.0164505383679261
      vertex -3.1669649339505241 34.174515106813288 4.0164505383679261
      vertex -4.7894185432910312 34.174515106813288 4.0164505383679261
    endloop
  endfacet
  facet normal 0 -0 1
    outer loop
      vertex -3.1669649339505241 13.569354268188832 4.0164505383679261
      vertex -1.5445113246100188 13.569354268188832 4.0164505383679261
      vertex -1.5445113246100188 34.174515106813288 4.0164505383679261
    endloop
  endfacet
  facet normal -0 0 1
    outer loop
      vertex -3.1669649339505241 13.569354268188832 4.0164505383679261
      vertex -1.5445113246100188 34.174515106813288 4.0164505383679261
      vertex -3.1669649339505241 34.174515106813288 4.0164505383679261
    endloop
  endfacet
  facet normal 0 -0 1
    outer loop
      vertex -1.5445113246100188 13.569354268188832 4.0164505383679261
      vertex 0.077942284730486477 13.569354268188832 4.0164505383679261
      vertex 0.077942284730486477 34.174515106813288 4.0164505383679261
    endloop
  endfacet
  facet normal -0 0 1
    outer loop
      vertex -1.5445113246100188 13.569354268188832 4.0164505383679261
      vertex 0.077942284730486477 34.174515106813288 4.0164505383679261
      vertex -1.5445113246100188 34.174515106813288 4.0164505383679261
    endloop
  endfacet
  facet normal 0 -0 1
    outer loop
      vertex 0.077942284730486477 13.569354268188832 4.0164505383679261
      vertex 1.7003958940709936 13.569354268188832 4.0164505383679261
      vertex 1.7003958940709936 34.174515106813288 4.0164505383679261
    endloop
  endfacet
  facet normal 0 -0 1
    outer loop
      vertex 0.077942284730486477 13.569354268188832 4.0164505383679261
      vertex 1.7003958940709936 34.174515106813288 4.0164505383679261
      vertex 0.077942284730486477 34.174515106813288 4.0164505383679261
    endloop
  endfacet
  facet normal 0 -0 1
    outer loop
      vertex 1.7003958940709936 13.569354268188832 4.0164505383679261
      vertex 3.3228495034114971 13.569354268188832 4.0164505383679261
      vertex 3.3228495034114971 34.174515106813288 4.0164505383679261
    endloop
  endfacet
  facet normal -0 0 1
    outer loop
      vertex 1.7003958940709936 13.569354268188832 4.0164505383679261
      vertex 3.3228495034114971 34.174515106813288 4.0164505383679261
      vertex 1.7003958940709936 34.174515106813288 4.0164505383679261
    endloop
  endfacet
  facet normal 0 -0 1
    outer loop
      vertex 3.3228495034114971 13.569354268188832 4.0164505383679261
      vertex 4.9453031127520042 13.569354268188832 4.0164505383679261
      vertex 4.9453031127520042 34.174515106813288 4.0164505383679261
    endloop
  endfacet
  facet normal 0 -0 1
    outer loop
      vertex 3.3228495034114971 13.569354268188832 4.0164505383679261
      vertex 4.9453031127520042 34.174515106813288 4.0164505383679261
      vertex 3.3228495034114971 34.174515106813288 4.0164505383679261
    endloop
  endfacet
  facet normal 0 -0 1
    outer loop
      vertex 4.9453031127520042 13.569354268188832 4.0164505383679261
      vertex 6.5677567220925077 13.569354268188832 4.0164505383679261
      vertex 6.5677567220925077 34.174515106813288 4.0164505383679261
    endloop
  endfacet
  facet normal -0 0 1
    outer loop
      vertex 4.9453031127520042 13.569354268188832 4.0164505383679261
      vertex 6.5677567220925077 34.174515106813288 4.0164505383679261
      vertex 4.9453031127520042 34.174515106813288 4.0164505383679261
    endloop
  endfacet
  facet normal 0 -0 1
    outer loop
      vertex 6.5677567220925077 13.569354268188832 4.0164505383679261
      vertex 8.1902103314330148 13.569354268188832 4.0164505383679261
      vertex 8.1902103314330148 34.174515106813288 4.0164505383679261
    endloop
  endfacet
  facet normal 0 -0 1
    outer loop
      vertex 6.5677567220925077 13.569354268188832 4.0164505383679261
      vertex 8.1902103314330148 34.174515106813288 4.0164505383679261
      vertex 6.5677567220925077 34.174515106813288 4.0164505383679261
    endloop
  endfacet
  facet normal 0 -0 1
    outer loop
      vertex 8.1902103314330148 13.569354268188832 4.0164505383679261
      vertex 9.8126639407735219 13.569354268188832 4.0164505383679261
      vertex 9.8126639407735219 34.174515106813288 4.0164505383679261
    endloop
  endfacet
  facet normal 0 -0 1
    outer loop
      vertex 8.1902103314330148 13.569354268188832 4.0164505383679261
      vertex 9.8126639407735219 34.174515106813288 4.0164505383679261
      vertex 8.1902103314330148 34.174515106813288 4.0164505383679261
    endloop
  endfacet
  facet normal 0 -0 1
    outer loop
      vertex 9.8126639407735219 13.569354268188832 4.0164505383679261
      vertex 11.435117550114025 13.569354268188832 4.0164505383679261
      vertex 11.435117550114025 34.174515106813288 4.0164505383679261
    endloop
  endfacet
  facet normal -0 0 1
    outer loop
      vertex 9.8126639407735219 13.569354268188832 4.0164505383679261
      vertex 11.435117550114025 34.174515106813288 4.0164505383679261
      vertex 9.8126639407735219 34.174515106813288 4.0164505383679261
    endloop
  endfacet
  facet normal 0.81071287334205588 -0 0.58544396571957924
    outer loop
      vertex 11.435117550114025 13.569354268188832 4.0164505383679261
      vertex 13.057571159454533 13.569354268188832 1.7697043004492894
      vertex 13.057571159454533 34.174515106813288 1.7697043004492894
    endloop
  endfacet
  facet normal 0.810712873342056 0 0.58544396571957924
    outer loop
      vertex 11.435117550114025 13.569354268188832 4.0164505383679261
      vertex 13.057571159454533 34.174515106813288 1.7697043004492894
      vertex 11.435117550114025 34.174515106813288 4.0164505383679261
    endloop
  endfacet
  facet normal 0.73710752641992439 -0 0.67577547639367674
    outer loop
      vertex 13.057571159454533 13.569354268188832 1.7697043004492894
      vertex 14.680024768795036 13.569354268188832 0
      vertex 14.680024768795036 34.174515106813288 0
    endloop
  endfacet
  facet normal 0.73710752641992439 0 0.67577547639367674
    outer loop
      vertex 13.057571159454533 13.569354268188832 1.7697043004492894
      vertex 14.680024768795036 34.174515106813288 0
      vertex 13.057571159454533 34.174515106813288 1.7697043004492894
    endloop
  endfacet
  facet normal 0 -0 1
    outer loop
      vertex 14.680024768795036 13.569354268188832 0
      vertex 16.302478378135543 13.569354268188832 0
      vertex 16.302478378135543 34.174515106813288 0
    endloop
  endfacet
  facet normal 0 -0 1
    outer loop
      vertex 14.680024768795036 13.569354268188832 0
      vertex 16.302478378135543 34.174515106813288 0
      vertex 14.680024768795036 34.174515106813288 0
    endloop
  endfacet
  facet normal 0 -0 1
    outer loop
      vertex -16.14659380867457 34.174515106813288 0
      vertex -14.524140199334065 34.174515106813288 0
      vertex -14.524140199334065 54.779675945437717 0
    endloop
  endfacet
  facet normal -0 0 1
    outer loop
      vertex -16.14659380867457 34.174515106813288 0
      vertex -14.524140199334065 54.779675945437717 0
      vertex -16.14659380867457 54.779675945437717 0
    endloop
  endfacet
  facet normal -0.73710752641992394 0 0.67577547639367708
    outer loop
      vertex -14.524140199334065 34.174515106813288 0
      vertex -12.90168658999356 34.174515106813288 1.7697043004492894
      vertex -12.90168658999356 54.779675945437717 1.7697043004492894
    endloop
  endfacet
  facet normal -0.73710752641992394 0 0.67577547639367708
    outer loop
      vertex -14.524140199334065 34.174515106813288 0
      vertex -12.90168658999356 54.779675945437717 1.7697043004492894
      vertex -14.524140199334065 54.779675945437717 0
    endloop
  endfacet
  facet normal -0.81071287334205588 0 0.58544396571957924
    outer loop
      vertex -12.90168658999356 34.174515106813288 1.7697043004492894
      vertex -11.279232980653052 34.174515106813288 4.0164505383679261
      vertex -11.279232980653052 54.779675945437717 4.0164505383679261
    endloop
  endfacet
  facet normal -0.81071287334205588 -1.1250901229304609e-17 0.58544396571957924
    outer loop
      vertex -12.90168658999356 34.174515106813288 1.7697043004492894
      vertex -11.279232980653052 54.779675945437717 4.0164505383679261
      vertex -12.90168658999356 54.779675945437717 1.7697043004492894
    endloop
  endfacet
  facet normal 0 -0 1
    outer loop
      vertex -11.279232980653052 34.174515106813288 4.0164505383679261
      vertex -9.6567793713125472 34.174515106813288 4.0164505383679261
      vertex -9.6567793713125472 54.779675945437717 4.0164505383679261
    endloop
  endfacet
  facet normal -0 0 1
    outer loop
      vertex -11.279232980653052 34.174515106813288 4.0164505383679261
      vertex -9.6567793713125472 54.779675945437717 4.0164505383679261
      vertex -11.279232980653052 54.779675945437717 4.0164505383679261
    endloop
  endfacet
  facet normal 0 -0 1
    outer loop
      vertex -9.6567793713125472 34.174515106813288 4.0164505383679261
      vertex -8.0343257619720418 34.174515106813288 4.0164505383679261
      vertex -8.0343257619720418 54.779675945437717 4.0164505383679261
    endloop
  endfacet
  facet normal -0 0 1
    outer loop
      vertex -9.6567793713125472 34.174515106813288 4.0164505383679261
      vertex -8.0343257619720418 54.779675945437717 4.0164505383679261
      vertex -9.6567793713125472 54.779675945437717 4.0164505383679261
    endloop
  endfacet
  facet normal 0 -0 1
    outer loop
      vertex -8.0343257619720418 34.174515106813288 4.0164505383679261
      vertex -6.4118721526315365 34.174515106813288 4.0164505383679261
      vertex -6.4118721526315365 54.779675945437717 4.0164505383679261
    endloop
  endfacet
  facet normal -0 0 1
    outer loop
      vertex -8.0343257619720418 34.174515106813288 4.0164505383679261
      vertex -6.4118721526315365 54.779675945437717 4.0164505383679261
      vertex -8.0343257619720418 54.779675945437717 4.0164505383679261
    endloop
  endfacet
  facet normal 0 -0 1
    outer loop
      vertex -6.4118721526315365 34.174515106813288 4.0164505383679261
      vertex -4.7894185432910312 34.174515106813288 4.0164505383679261
      vertex -4.7894185432910312 54.779675945437717 4.0164505383679261
    endloop
  endfacet
  facet normal -0 0 1
    outer loop
      vertex -6.4118721526315365 34.174515106813288 4.0164505383679261
      vertex -4.7894185432910312 54.779675945437717 4.0164505383679261
      vertex -6.4118721526315365 54.779675945437717 4.0164505383679261
    endloop
  endfacet
  facet normal 0 -0 1
    outer loop
      vertex -4.7894185432910312 34.174515106813288 4.0164505383679261
      vertex -3.1669649339505241 34.174515106813288 4.0164505383679261
      vertex -3.1669649339505241 54.779675945437717 4.0164505383679261
    endloop
  endfacet
  facet normal -0 0 1
    outer loop
      vertex -4.7894185432910312 34.174515106813288 4.0164505383679261
      vertex -3.1669649339505241 54.779675945437717 4.0164505383679261
      vertex -4.7894185432910312 54.779675945437717 4.0164505383679261
    endloop
  endfacet
  facet normal 0 -0 1
    outer loop
      vertex -3.1669649339505241 34.174515106813288 4.0164505383679261
      vertex -1.5445113246100188 34.174515106813288 4.0164505383679261
      vertex -1.5445113246100188 54.779675945437717 4.0164505383679261
    endloop
  endfacet
  facet normal -0 0 1
    outer loop
      vertex -3.1669649339505241 34.174515106813288 4.0164505383679261
      vertex -1.5445113246100188 54.779675945437717 4.0164505383679261
      vertex -3.1669649339505241 54.779675945437717 4.0164505383679261
    endloop
  endfacet
  facet normal 0 -0 1
    outer loop
      vertex -1.5445113246100188 34.174515106813288 4.0164505383679261
      vertex 0.077942284730486477 34.174515106813288 4.0164505383679261
      vertex 0.077942284730486477 54.779675945437717 4.0164505383679261
    endloop
  endfacet
  facet normal -0 0 1
    outer loop
      vertex -1.5445113246100188 34.174515106813288 4.0164505383679261
      vertex 0.077942284730486477 54.779675945437717 4.0164505383679261
      vertex -1.5445113246100188 54.779675945437717 4.0164505383679261
    endloop
  endfacet
  facet normal 0 -0 1
    outer loop
      vertex 0.077942284730486477 34.174515106813288 4.0164505383679261
      vertex 1.7003958940709936 34.174515106813288 4.0164505383679261
      vertex 1.7003958940709936 54.779675945437717 4.0164505383679261
    endloop
  endfacet
  facet normal -0 0 1
    outer loop
      vertex 0.077942284730486477 34.174515106813288 4.0164505383679261
      vertex 1.7003958940709936 54.779675945437717 4.0164505383679261
      vertex 0.077942284730486477 54.779675945437717 4.0164505383679261
    endloop
  endfacet
  facet normal 0 -0 1
    outer loop
      vertex 1.7003958940709936 34.174515106813288 4.0164505383679261
      vertex 3.3228495034114971 34.174515106813288 4.0164505383679261
      vertex 3.3228495034114971 54.779675945437717 4.0164505383679261
    endloop
  endfacet
  facet normal -0 0 1
    outer loop
      vertex 1.7003958940709936 34.174515106813288 4.0164505383679261
      vertex 3.3228495034114971 54.779675945437717 4.0164505383679261
      vertex 1.7003958940709936 54.779675945437717 4.0164505383679261
    endloop
  endfacet
  facet normal 0 -0 1
    outer loop
      vertex 3.3228495034114971 34.174515106813288 4.0164505383679261
      vertex 4.9453031127520042 34.174515106813288 4.0164505383679261
      vertex 4.9453031127520042 54.779675945437717 4.0164505383679261
    endloop
  endfacet
  facet normal -0 0 1
    outer loop
      vertex 3.3228495034114971 34.174515106813288 4.0164505383679261
      vertex 4.9453031127520042 54.779675945437717 4.0164505383679261
      vertex 3.3228495034114971 54.779675945437717 4.0164505383679261
    endloop
  endfacet
  facet normal 0 -0 1
    outer loop
      vertex 4.9453031127520042 34.174515106813288 4.0164505383679261
      vertex 6.5677567220925077 34.174515106813288 4.0164505383679261
      vertex 6.5677567220925077 54.779675945437717 4.0164505383679261
    endloop
  endfacet
  facet normal -0 0 1
    outer loop
      vertex 4.9453031127520042 34.174515106813288 4.0164505383679261
      vertex 6.5677567220925077 54.779675945437717 4.0164505383679261
      vertex 4.9453031127520042 54.779675945437717 4.0164505383679261
    endloop
  endfacet
  facet normal 0 -0 1
    outer loop
      vertex 6.5677567220925077 34.174515106813288 4.0164505383679261
      vertex 8.1902103314330148 34.174515106813288 4.0164505383679261
      vertex 8.1902103314330148 54.779675945437717 4.0164505383679261
    endloop
  endfacet
  facet normal -0 0 1
    outer loop
      vertex 6.5677567220925077 34.174515106813288 4.0164505383679261
      vertex 8.1902103314330148 54.779675945437717 4.0164505383679261
      vertex 6.5677567220925077 54.779675945437717 4.0164505383679261
    endloop
  endfacet
  facet normal 0 -0 1
    outer loop
      vertex 8.1902103314330148 34.174515106813288 4.0164505383679261
      vertex 9.8126639407735219 34.174515106813288 4.0164505383679261
      vertex 9.8126639407735219 54.779675945437717 4.0164505383679261
    endloop
  endfacet
  facet normal -0 0 1
    outer loop
      vertex 8.1902103314330148 34.174515106813288 4.0164505383679261
      vertex 9.8126639407735219 54.779675945437717 4.0164505383679261
      vertex 8.1902103314330148 54.779675945437717 4.0164505383679261
    endloop
  endfacet
  facet normal 0 -0 1
    outer loop
      vertex 9.8126639407735219 34.174515106813288 4.0164505383679261
      vertex 11.435117550114025 34.174515106813288 4.0164505383679261
      vertex 11.435117550114025 54.779675945437717 4.0164505383679261
    endloop
  endfacet
  facet normal -0 0 1
    outer loop
      vertex 9.8126639407735219 34.174515106813288 4.0164505383679261
      vertex 11.435117550114025 54.779675945437717 4.0164505383679261
      vertex 9.8126639407735219 54.779675945437717 4.0164505383679261
    endloop
  endfacet
  facet normal 0.81071287334205588 -0 0.58544396571957924
    outer loop
      vertex 11.435117550114025 34.174515106813288 4.0164505383679261
      vertex 13.057571159454533 34.174515106813288 1.7697043004492894
      vertex 13.057571159454533 54.779675945437717 1.7697043004492894
    endloop
  endfacet
  facet normal 0.81071287334205588 1.1250901229304609e-17 0.58544396571957924
    outer loop
      vertex 11.435117550114025 34.174515106813288 4.0164505383679261
      vertex 13.057571159454533 54.779675945437717 1.7697043004492894
      vertex 11.435117550114025 54.779675945437717 4.0164505383679261
    endloop
  endfacet
  facet normal 0.73710752641992439 -0 0.67577547639367674
    outer loop
      vertex 13.057571159454533 34.174515106813288 1.7697043004492894
      vertex 14.680024768795036 34.174515106813288 0
      vertex 14.680024768795036 54.779675945437717 0
    endloop
  endfacet
  facet normal 0.73710752641992439 0 0.67577547639367674
    outer loop
      vertex 13.057571159454533 34.174515106813288 1.7697043004492894
      vertex 14.680024768795036 54.779675945437717 0
      vertex 13.057571159454533 54.779675945437717 1.7697043004492894
    endloop
  endfacet
  facet normal 0 -0 1
    outer loop
      vertex 14.680024768795036 34.174515106813288 0
      vertex 16.302478378135543 34.174515106813288 0
      vertex 16.302478378135543 54.779675945437717 0
    endloop
  endfacet
  facet normal -0 0 1
    outer loop
      vertex 14.680024768795036 34.174515106813288 0
      vertex 16.302478378135543 54.779675945437717 0
      vertex 14.680024768795036 54.779675945437717 0
    endloop
  endfacet
endsolid OBJECT
